<svg width="161" height="82" viewBox="0 0 161 82" fill="none" xmlns="http://www.w3.org/2000/svg">
<g clip-path="url(#clip0_8749_48744)">
<path d="M42.64 16.663V2.85H56.504V0H39.834V16.663H42.64Z" fill="url(#paint0_radial_8749_48744)"/>
<path d="M56.504 81.6054V78.8004H42.64V64.9424H39.832V81.6054H56.504Z" fill="url(#paint1_radial_8749_48744)"/>
<path d="M118.536 78.7994H104.716V81.6054H121.387V64.9424H118.536V78.7994Z" fill="url(#paint2_radial_8749_48744)"/>
<path d="M118.536 2.85V16.663H121.387V0H104.717V2.85H118.536Z" fill="url(#paint3_radial_8749_48744)"/>
<path d="M10.5723 24.03C10.5293 23.591 10.7923 23.24 11.2313 23.153H12.3703C12.8093 23.109 13.2043 23.373 13.2483 23.811V32.493C13.2483 34.466 14.5203 35.563 16.4943 35.563C18.4683 35.563 19.7403 34.466 19.7403 32.493V24.03C19.6963 23.591 19.9604 23.24 20.3983 23.153H21.4943C21.5924 23.141 21.6918 23.1486 21.7869 23.1752C21.882 23.2018 21.9709 23.247 22.0484 23.3082C22.126 23.3694 22.1906 23.4453 22.2387 23.5316C22.2867 23.6179 22.3172 23.7129 22.3283 23.811V32.537C22.3283 35.826 20.0033 38.018 16.4503 38.018C12.8974 38.018 10.5283 35.782 10.5283 32.537V24.03H10.5723ZM25.3563 24.03C25.3134 23.591 25.5763 23.24 26.0143 23.153H27.2003C27.6393 23.109 27.9904 23.416 28.0333 23.855V29.117H29.9633L33.0354 23.767C33.2104 23.372 33.6054 23.153 34.0443 23.153H35.0523C35.7543 23.153 35.9743 23.591 35.6674 24.161L32.1133 30.081V30.125L35.9304 36.703C36.2803 37.317 36.0184 37.711 35.3164 37.711H34.2194C33.7804 37.755 33.3853 37.492 33.2104 37.097L29.9643 31.309H28.0343V36.834C28.1213 37.229 27.8144 37.624 27.4193 37.711H26.2353C25.8403 37.755 25.4453 37.492 25.4013 37.053V24.03H25.3563ZM43.0364 24.03C42.9924 23.591 43.2554 23.24 43.6944 23.153H44.8783C45.3173 23.109 45.6684 23.416 45.7124 23.855V29.38H52.4244V24.03C52.3804 23.591 52.6444 23.197 53.0824 23.153H54.2224C54.3204 23.141 54.4198 23.1486 54.5149 23.1752C54.61 23.2018 54.6989 23.247 54.7764 23.3082C54.854 23.3694 54.9186 23.4453 54.9667 23.5316C55.0147 23.6179 55.0452 23.7129 55.0564 23.811V36.922C55.1444 37.317 54.8364 37.712 54.4424 37.799H53.3023C52.9063 37.887 52.5124 37.579 52.4244 37.185V31.66H45.7124V36.922C45.7994 37.317 45.4924 37.712 45.0984 37.799H43.8694C43.4743 37.843 43.0793 37.579 43.0364 37.141V24.03ZM62.2943 27.012C65.2774 27.012 66.9444 29.117 66.9444 32.011C66.9444 32.493 66.5504 32.888 66.0244 32.888H59.6184C59.7064 34.554 61.1104 35.826 62.7774 35.782C63.5674 35.782 64.3573 35.519 65.0583 35.08C65.5844 34.817 65.9353 34.905 66.1983 35.387L66.4623 35.782C66.7253 36.132 66.6374 36.615 66.2864 36.878C66.2434 36.922 66.2433 36.922 66.1993 36.922C65.1463 37.58 63.9174 37.974 62.6454 37.974C59.1804 37.974 56.9864 35.474 56.9864 32.493C56.9424 29.292 59.1363 27.012 62.2943 27.012ZM64.3564 31.309C64.3124 29.862 63.4354 28.985 62.2504 28.985C60.8904 28.985 59.9704 29.905 59.7064 31.309H64.3564ZM73.9633 31.31H74.4034V31.046C74.4034 29.643 73.5254 29.204 72.4284 29.204C71.6384 29.204 70.8933 29.424 70.2354 29.818C70.0579 29.9243 69.8472 29.9606 69.6443 29.9199C69.4415 29.8792 69.2611 29.7645 69.1384 29.598C69.0944 29.555 69.0944 29.511 69.0504 29.468L68.8304 29.073C68.7682 28.994 68.7233 28.9029 68.6984 28.8056C68.6735 28.7082 68.6692 28.6067 68.6857 28.5076C68.7023 28.4085 68.7394 28.3139 68.7946 28.23C68.8498 28.146 68.9219 28.0745 69.0063 28.02C69.0503 27.976 69.0944 27.976 69.1384 27.933C70.1888 27.3618 71.3647 27.0605 72.5603 27.056C75.2803 27.056 76.9034 28.59 76.9034 31.221V36.921C76.9903 37.317 76.6833 37.711 76.2894 37.799H75.3233C74.9294 37.843 74.5333 37.579 74.4903 37.141V36.527C74.4903 36.396 74.4903 36.22 74.5343 36.089H74.5784C73.9204 37.273 72.6484 38.062 71.2884 38.062C69.3584 38.062 67.8223 36.834 67.8223 34.905C67.8223 31.791 71.5954 31.31 73.9633 31.31ZM71.9893 36.045C73.4373 36.045 74.4024 34.554 74.4024 33.282V32.888H73.9633C72.6473 32.888 70.4104 33.107 70.4104 34.642C70.4104 35.343 70.9363 36.002 71.9893 36.045ZM79.2283 24.03C79.1843 23.591 79.4483 23.24 79.8864 23.153H81.0264C81.1244 23.141 81.2238 23.1486 81.3189 23.1752C81.414 23.2018 81.5029 23.247 81.5804 23.3082C81.658 23.3694 81.7226 23.4453 81.7707 23.5316C81.8187 23.6179 81.8492 23.7129 81.8604 23.811V34.29C81.8604 35.3 82.2994 35.519 82.6934 35.563C83.0443 35.563 83.3513 35.913 83.3513 36.264V37.01C83.3953 37.448 83.1324 37.843 82.6934 37.887H82.4743C81.0704 37.887 79.2724 37.536 79.2724 34.51L79.2283 24.03ZM85.2823 29.511H84.7123C84.3174 29.555 83.9223 29.292 83.8783 28.853V28.284C83.8344 27.844 84.0984 27.45 84.5364 27.406H85.3694V25.302C85.3264 24.863 85.6334 24.468 86.0284 24.425H87.0804C87.1841 24.413 87.2892 24.4217 87.3895 24.4505C87.4899 24.4793 87.5836 24.5277 87.6652 24.5929C87.7468 24.658 87.8147 24.7387 87.865 24.8301C87.9153 24.9216 87.947 25.0222 87.9584 25.126V27.45H89.4933C89.9324 27.406 90.3274 27.713 90.3714 28.108V28.678C90.4144 29.117 90.1514 29.468 89.7133 29.555H88.0023V33.633C88.0023 35.212 88.9673 35.519 89.7123 35.606C90.3273 35.65 90.5903 35.87 90.5903 36.44V37.053C90.5903 37.667 90.2394 37.93 89.5374 37.93C87.6514 37.93 85.4134 36.922 85.4134 34.072L85.2823 29.511ZM91.9944 24.03C91.9504 23.591 92.2574 23.197 92.6524 23.153H93.7494C94.1874 23.109 94.5824 23.373 94.6264 23.811V28.283C94.6264 28.59 94.6264 28.853 94.5824 29.16H94.6264C95.3724 27.845 96.7764 27.012 98.2673 27.056C100.592 27.056 101.952 28.283 101.952 31.046V36.966C101.996 37.404 101.732 37.799 101.294 37.843H100.197C99.8024 37.93 99.4073 37.623 99.3204 37.229V31.572C99.3204 30.301 98.9694 29.424 97.6534 29.424C95.8103 29.424 94.6264 30.914 94.6264 32.888V36.922C94.7143 37.317 94.4063 37.712 94.0124 37.799H92.8704C92.4314 37.843 92.0373 37.579 91.9933 37.141V24.03H91.9944ZM109.454 24.03C109.366 23.635 109.673 23.24 110.068 23.153H114.411C118.929 23.153 121.869 25.828 121.869 30.433C121.869 35.036 118.929 37.755 114.411 37.755H110.287C109.892 37.799 109.497 37.535 109.454 37.097V24.03ZM114.279 35.475C117.262 35.475 119.149 33.721 119.149 30.432C119.149 27.143 117.219 25.433 114.323 25.433H112.13V35.475H114.279ZM129.107 31.31H129.546V31.046C129.546 29.643 128.668 29.204 127.572 29.204C126.782 29.204 126.036 29.424 125.378 29.818C125.201 29.9243 124.99 29.9606 124.787 29.9199C124.585 29.8792 124.404 29.7645 124.281 29.598C124.238 29.555 124.238 29.511 124.194 29.468L123.974 29.073C123.912 28.994 123.867 28.9029 123.842 28.8056C123.817 28.7082 123.813 28.6067 123.83 28.5076C123.846 28.4085 123.883 28.3139 123.939 28.23C123.994 28.146 124.066 28.0745 124.15 28.02C124.194 27.976 124.238 27.976 124.325 27.933C125.376 27.3618 126.552 27.0605 127.747 27.056C130.467 27.056 132.09 28.59 132.09 31.221V36.921C132.178 37.317 131.87 37.711 131.476 37.799H130.555C130.16 37.843 129.765 37.536 129.721 37.141V36.527C129.721 36.396 129.721 36.22 129.765 36.089H129.677C129.019 37.273 127.747 38.062 126.387 38.062C124.457 38.062 122.922 36.834 122.922 34.905C122.922 31.791 126.738 31.31 129.107 31.31ZM127.133 36.045C128.581 36.045 129.546 34.554 129.546 33.282V32.888H129.107C127.791 32.888 125.554 33.107 125.554 34.642C125.51 35.343 126.08 36.002 127.133 36.045ZM134.81 29.511H134.24C133.845 29.555 133.45 29.292 133.406 28.853V28.284C133.362 27.844 133.626 27.45 134.064 27.406H134.898V25.302C134.887 25.1983 134.895 25.0932 134.924 24.9929C134.953 24.8926 135.002 24.799 135.067 24.7175C135.132 24.636 135.213 24.5682 135.304 24.518C135.396 24.4678 135.497 24.4362 135.6 24.425H136.609C136.713 24.4132 136.818 24.422 136.918 24.4508C137.018 24.4797 137.112 24.5281 137.194 24.5932C137.275 24.6584 137.343 24.739 137.393 24.8304C137.443 24.9218 137.475 25.0223 137.486 25.126V27.45H139.022C139.46 27.406 139.855 27.713 139.899 28.108V28.678C139.943 29.117 139.679 29.468 139.241 29.555H137.486V33.633C137.486 35.212 138.451 35.519 139.153 35.606C139.811 35.65 140.031 35.87 140.031 36.44V37.053C140.031 37.667 139.68 37.93 138.978 37.93C137.091 37.93 134.854 36.922 134.854 34.072L134.81 29.511ZM146.874 31.31H147.313V31.046C147.313 29.643 146.435 29.204 145.339 29.204C144.549 29.204 143.803 29.424 143.145 29.818C142.619 30.038 142.224 29.95 142.005 29.468L141.785 29.073C141.723 28.994 141.678 28.9029 141.653 28.8056C141.628 28.7082 141.624 28.6067 141.641 28.5076C141.657 28.4085 141.694 28.3139 141.75 28.23C141.805 28.146 141.877 28.0745 141.961 28.02C142.005 27.976 142.049 27.933 142.136 27.933C143.187 27.3618 144.363 27.0605 145.558 27.056C148.278 27.056 149.901 28.59 149.901 31.221V36.921C149.989 37.317 149.681 37.711 149.287 37.799H148.322C147.927 37.843 147.532 37.579 147.488 37.141V36.527C147.488 36.396 147.488 36.22 147.532 36.089H147.488C146.83 37.273 145.558 38.062 144.198 38.062C142.268 38.062 140.732 36.834 140.732 34.905C140.689 31.791 144.505 31.31 146.874 31.31ZM144.9 36.045C146.348 36.045 147.313 34.554 147.313 33.282V32.888H146.874C145.558 32.888 143.321 33.107 143.321 34.642C143.321 35.343 143.847 36.002 144.9 36.045ZM0.439349 44.464C0.395349 44.026 0.658349 43.674 1.09735 43.587H5.26435C6.71235 43.587 7.41435 43.719 8.02835 43.982C9.52035 44.596 10.4853 45.999 10.4853 47.972C10.4853 49.682 9.56335 51.349 8.07235 51.962V52.006C8.24735 52.226 8.42235 52.489 8.55435 52.752L10.9673 57.137C11.3183 57.751 11.0553 58.145 10.3533 58.145H9.21335C8.77335 58.189 8.37935 57.926 8.20335 57.532L5.61535 52.708H3.07135V57.312C3.15935 57.707 2.85135 58.102 2.45735 58.189H1.27235C0.877349 58.233 0.482349 57.97 0.439349 57.532V44.464ZM5.48435 50.472C6.88735 50.472 7.80935 49.595 7.80935 48.148C7.80935 47.227 7.45835 46.481 6.66935 46.13C6.17284 45.912 5.6297 45.8216 5.08935 45.867H3.07035V50.427H5.48335V50.472H5.48435ZM17.2403 47.446C20.2243 47.446 21.8903 49.551 21.8903 52.445C21.8903 52.927 21.4523 53.322 20.9703 53.322H14.6083C14.6963 54.988 16.1003 56.26 17.7673 56.216C18.5574 56.216 19.3473 55.953 20.0483 55.514C20.5753 55.251 20.9263 55.339 21.1883 55.821L21.4523 56.216C21.7153 56.566 21.6283 57.049 21.2773 57.312C21.2545 57.3371 21.2231 57.3528 21.1893 57.356C20.1354 58.0518 18.8982 58.4183 17.6353 58.409C14.1703 58.409 11.9763 55.909 11.9763 52.927C11.9323 49.727 14.1253 47.446 17.2403 47.446ZM19.3023 51.743C19.2593 50.296 18.3823 49.419 17.1973 49.419C15.8813 49.419 14.9163 50.34 14.6523 51.743H19.3023ZM23.1633 56.216L23.4263 55.866C23.7333 55.426 24.0843 55.383 24.6113 55.646C25.3133 56.084 26.1463 56.348 26.9363 56.348C27.8563 56.348 28.3833 55.953 28.3833 55.295C28.3833 53.585 23.1633 54.243 23.1633 50.603C23.1633 48.543 24.9623 47.446 27.1993 47.446C28.2083 47.446 29.2173 47.709 30.1393 48.191C30.5333 48.367 30.7094 48.849 30.5333 49.244C30.5333 49.288 30.4893 49.332 30.4893 49.375L30.2693 49.77C30.0073 50.252 29.6123 50.34 29.1293 50.12C28.5117 49.8184 27.8412 49.6401 27.1553 49.595C26.2344 49.595 25.7513 49.945 25.7513 50.603C25.7513 52.357 30.9713 51.656 30.9713 55.251C30.9713 57.093 29.3923 58.496 26.9803 58.496C25.7313 58.5054 24.5083 58.1388 23.4703 57.444C23.1203 57.268 22.9443 56.83 23.1203 56.435C23.0313 56.348 23.0753 56.26 23.1633 56.216ZM37.2894 47.446C40.2724 47.446 41.9394 49.551 41.9394 52.445C41.9394 52.927 41.5004 53.322 41.0184 53.322H34.6133C34.7014 54.988 36.1044 56.304 37.7714 56.216C38.5614 56.216 39.3514 55.953 40.0534 55.514C40.5794 55.251 40.9304 55.339 41.1934 55.821L41.4564 56.216C41.7204 56.566 41.6324 57.049 41.2813 57.312C41.2374 57.356 41.1934 57.356 41.1934 57.356C40.1396 58.0516 38.9029 58.4181 37.6404 58.409C34.1744 58.409 31.9803 55.909 31.9803 52.927C31.9373 49.727 34.1304 47.446 37.2894 47.446ZM39.3514 51.787C39.3074 50.34 38.4294 49.463 37.2453 49.463C35.8853 49.463 34.9644 50.384 34.7014 51.787H39.3514ZM49.0023 51.743H49.4414V51.48C49.4414 50.12 48.5634 49.639 47.4664 49.639C46.6763 49.639 45.9314 49.858 45.2733 50.252C44.7473 50.472 44.3524 50.384 44.1334 49.902L43.9133 49.507C43.8514 49.428 43.8066 49.337 43.7818 49.2398C43.757 49.1425 43.7527 49.0412 43.7693 48.9422C43.7858 48.8432 43.8228 48.7487 43.878 48.6648C43.9331 48.581 44.0051 48.5095 44.0894 48.455C44.1324 48.411 44.1763 48.411 44.2644 48.367C45.3148 47.7958 46.4907 47.4945 47.6864 47.49C50.4064 47.49 52.0294 49.025 52.0294 51.656V57.356C52.1174 57.751 51.8094 58.146 51.4154 58.233H50.4504C50.0554 58.277 49.6604 58.013 49.6164 57.575V56.961C49.6164 56.83 49.6164 56.655 49.6604 56.523H49.6164C48.9584 57.707 47.6864 58.496 46.3264 58.496C44.3964 58.496 42.8604 57.268 42.8604 55.339C42.8164 52.226 46.6334 51.743 49.0023 51.743ZM47.0284 56.479C48.4753 56.479 49.4414 54.989 49.4414 53.717V53.322H49.0004C47.6854 53.322 45.4484 53.542 45.4484 55.076C45.4484 55.778 45.9753 56.436 47.0284 56.479ZM54.2663 48.586C54.2224 48.148 54.4864 47.796 54.9244 47.709H55.9343C56.3723 47.665 56.7674 47.972 56.8114 48.367V49.595C56.8114 49.814 56.8113 50.077 56.7673 50.296H56.8114C57.2054 49.025 58.3904 47.621 59.8814 47.621C60.4514 47.621 60.6714 47.928 60.6714 48.498V49.288C60.6832 49.3917 60.6743 49.4968 60.6454 49.5971C60.6165 49.6974 60.568 49.791 60.5027 49.8725C60.4375 49.954 60.3568 50.0218 60.2653 50.072C60.1737 50.1222 60.0732 50.1538 59.9694 50.165H59.7943C57.8643 50.165 56.9424 52.05 56.9424 53.98V57.356C57.0304 57.751 56.7224 58.146 56.3284 58.233H55.1884C54.7934 58.277 54.3983 58.013 54.3544 57.575V57.356L54.2663 48.586ZM66.4184 47.446C67.64 47.437 68.8347 47.8043 69.8403 48.498C70.1903 48.718 70.3223 49.2 70.1033 49.551C70.0593 49.595 70.0593 49.639 70.0154 49.639L69.7523 50.033C69.4454 50.516 69.0944 50.516 68.6124 50.253C68.0119 49.8595 67.3112 49.6464 66.5934 49.639C64.8834 49.595 63.4353 50.954 63.3913 52.664V52.884C63.3474 54.637 64.7074 56.128 66.4613 56.172H66.6814C67.5154 56.172 68.3484 55.865 69.0514 55.382C69.5774 55.076 69.9714 55.164 70.2354 55.646L70.4544 56.041C70.7174 56.391 70.6293 56.918 70.2784 57.181C70.2784 57.181 70.2354 57.181 70.2354 57.225C69.1384 58.014 67.8653 58.452 66.5053 58.452C63.0403 58.452 60.8034 55.997 60.8034 52.972C60.7154 49.989 62.9534 47.446 66.4184 47.446ZM72.0774 44.464C72.0334 44.026 72.3404 43.631 72.7354 43.587H73.8324C74.2714 43.543 74.6654 43.807 74.7094 44.245V48.718C74.7094 49.025 74.7094 49.288 74.6654 49.595H74.7094C75.4554 48.279 76.8594 47.446 78.3503 47.49C80.6753 47.49 82.0354 48.718 82.0354 51.48V57.356C82.0794 57.795 81.8164 58.189 81.3773 58.233H80.2813C79.8864 58.321 79.4913 58.013 79.4034 57.619V52.006C79.4034 50.735 79.0534 49.858 77.7364 49.858C75.8943 49.858 74.7094 51.348 74.7094 53.322V57.312C74.7973 57.707 74.4893 58.102 74.0954 58.189H72.9544C72.5163 58.233 72.1214 57.97 72.0774 57.532V44.464ZM92.7403 44.289C92.8713 43.85 93.2663 43.543 93.7054 43.587H95.0214C95.4594 43.543 95.8984 43.85 95.9864 44.289L100.548 57.225C100.768 57.839 100.504 58.189 99.8464 58.189H98.8813C98.4433 58.233 98.0043 57.926 97.9164 57.488L96.8633 54.462H91.7314L90.7214 57.488C90.6344 57.926 90.1954 58.233 89.7563 58.189H88.7914C88.1774 58.189 87.8703 57.795 88.0893 57.225L92.7403 44.289ZM96.2494 52.313L94.9333 48.411C94.6703 47.578 94.3633 46.131 94.3633 46.131H94.3194C94.3194 46.131 93.9684 47.578 93.7494 48.411L92.4324 52.313H96.2494ZM101.996 44.464C101.952 44.026 102.216 43.674 102.654 43.587H103.751C104.189 43.543 104.541 43.85 104.584 44.289V54.725C104.584 55.778 105.023 55.953 105.418 55.997C105.768 55.997 106.076 56.304 106.076 56.698V57.444C106.12 57.882 105.813 58.277 105.418 58.321H105.198C103.795 58.321 101.996 57.926 101.996 54.944V44.464ZM107.523 44.464C107.48 44.026 107.743 43.674 108.181 43.587H109.278C109.717 43.543 110.068 43.85 110.112 44.289V54.725C110.112 55.778 110.55 55.953 110.945 55.997C111.296 55.997 111.603 56.304 111.603 56.698V57.444C111.647 57.882 111.34 58.277 110.945 58.321H110.725C109.322 58.321 107.523 57.926 107.523 54.944V44.464ZM113.095 45.078V44.464C113.051 44.026 113.315 43.674 113.753 43.587H114.893C115.333 43.543 115.727 43.85 115.771 44.245V45.078C115.783 45.1759 115.776 45.2753 115.749 45.3703C115.722 45.4653 115.677 45.554 115.616 45.6314C115.555 45.7089 115.479 45.7734 115.392 45.8214C115.306 45.8694 115.211 45.8998 115.113 45.911H113.973C113.577 45.955 113.183 45.692 113.139 45.253C113.051 45.21 113.051 45.166 113.095 45.078ZM113.051 48.586C113.007 48.148 113.271 47.796 113.709 47.709H114.849C114.947 47.697 115.047 47.7045 115.142 47.7312C115.237 47.7578 115.326 47.8031 115.403 47.8642C115.481 47.9254 115.546 48.0013 115.594 48.0876C115.642 48.1739 115.672 48.2689 115.683 48.367V57.357C115.771 57.751 115.463 58.145 115.069 58.233H113.929C113.534 58.277 113.139 58.013 113.095 57.575V48.586H113.051ZM123.404 51.743H123.843V51.48C123.843 50.12 122.965 49.639 121.869 49.639C121.079 49.639 120.333 49.858 119.675 50.252C119.325 50.472 118.842 50.384 118.622 50.033C118.578 49.989 118.578 49.945 118.535 49.902L118.315 49.507C118.052 49.157 118.14 48.674 118.491 48.411C118.535 48.367 118.578 48.367 118.622 48.323C119.673 47.7518 120.849 47.4505 122.044 47.446C124.764 47.446 126.387 48.981 126.387 51.612V57.312C126.475 57.707 126.167 58.102 125.773 58.189H124.852C124.457 58.233 124.062 57.97 124.018 57.532V56.918C124.018 56.786 124.018 56.611 124.062 56.479H124.018C123.36 57.663 122.088 58.452 120.728 58.452C118.798 58.452 117.262 57.225 117.262 55.295C117.262 52.225 121.035 51.743 123.404 51.743ZM121.43 56.479C122.878 56.479 123.843 54.989 123.843 53.717V53.322H123.404C122.088 53.322 119.851 53.542 119.851 55.076C119.851 55.778 120.377 56.436 121.43 56.479ZM128.668 48.586C128.625 48.148 128.888 47.796 129.326 47.709H130.292C130.73 47.665 131.082 47.972 131.125 48.411V49.2C131.125 49.375 131.125 49.507 131.081 49.682H131.125C131.827 48.279 133.275 47.446 134.854 47.446C137.179 47.446 138.539 48.674 138.539 51.436V57.312C138.627 57.707 138.319 58.102 137.925 58.189H136.784C136.346 58.233 135.951 57.97 135.907 57.532V51.962C135.907 50.691 135.556 49.814 134.24 49.814C132.397 49.814 131.213 51.349 131.213 53.234V57.268C131.301 57.663 130.993 58.058 130.599 58.145H129.458C129.063 58.189 128.668 57.926 128.625 57.488V57.268L128.668 48.586ZM145.821 47.446C147.043 47.437 148.238 47.8043 149.243 48.498C149.594 48.718 149.726 49.2 149.506 49.551C149.462 49.595 149.462 49.639 149.419 49.639L149.155 50.033C148.848 50.516 148.497 50.516 148.015 50.253C147.415 49.8597 146.715 49.6466 145.997 49.639C145.585 49.63 145.176 49.7022 144.792 49.8516C144.408 50.001 144.057 50.2246 143.76 50.5096C143.462 50.7946 143.224 51.1355 143.058 51.5127C142.893 51.8899 142.803 52.2961 142.794 52.708V52.928C142.75 54.681 144.11 56.172 145.865 56.216H146.041C146.874 56.216 147.708 55.909 148.41 55.426C148.936 55.12 149.33 55.207 149.594 55.69L149.814 56.084C150.077 56.435 149.989 56.961 149.638 57.224L149.594 57.268C148.497 58.058 147.225 58.496 145.865 58.496C142.399 58.496 140.162 56.041 140.162 53.015C140.118 49.989 142.356 47.446 145.822 47.446M156.087 47.446C159.07 47.446 160.737 49.551 160.737 52.445C160.737 52.927 160.298 53.322 159.816 53.322H153.411C153.498 54.988 154.902 56.26 156.569 56.216C157.359 56.216 158.149 55.953 158.85 55.514C159.377 55.251 159.728 55.339 159.991 55.821L160.254 56.216C160.517 56.566 160.43 57.049 160.079 57.312C160.035 57.356 159.991 57.356 159.991 57.356C158.938 58.0516 157.701 58.4181 156.438 58.409C152.972 58.409 150.778 55.909 150.778 52.927C150.778 49.727 152.972 47.446 156.087 47.446ZM158.149 51.743C158.105 50.296 157.227 49.419 156.043 49.419C154.727 49.419 153.762 50.34 153.498 51.743H158.148H158.149Z" fill="#494444"/>
</g>
<defs>
<radialGradient id="paint0_radial_8749_48744" cx="0" cy="0" r="1" gradientTransform="matrix(8119.29 8159.16 -8152.23 8119.37 -19.4951 134.062)" gradientUnits="userSpaceOnUse">
<stop stop-color="#3DB28B"/>
<stop offset="0.27" stop-color="#3DAF8C"/>
<stop offset="0.47" stop-color="#3FA58F"/>
<stop offset="0.66" stop-color="#419595"/>
<stop offset="0.83" stop-color="#447E9D"/>
<stop offset="0.99" stop-color="#4860A7"/>
<stop offset="1" stop-color="#485EA8"/>
</radialGradient>
<radialGradient id="paint1_radial_8749_48744" cx="0" cy="0" r="1" gradientTransform="matrix(8120.27 8160.14 -8152.23 8119.38 4532.34 -4402.36)" gradientUnits="userSpaceOnUse">
<stop stop-color="#3DB28B"/>
<stop offset="0.27" stop-color="#3DAF8C"/>
<stop offset="0.47" stop-color="#3FA58F"/>
<stop offset="0.66" stop-color="#419595"/>
<stop offset="0.83" stop-color="#447E9D"/>
<stop offset="0.99" stop-color="#4860A7"/>
<stop offset="1" stop-color="#485EA8"/>
</radialGradient>
<radialGradient id="paint2_radial_8749_48744" cx="0" cy="0" r="1" gradientTransform="matrix(8119.78 8159.65 -8152.23 8119.38 0.362753 -8953.15)" gradientUnits="userSpaceOnUse">
<stop stop-color="#3DB28B"/>
<stop offset="0.27" stop-color="#3DAF8C"/>
<stop offset="0.47" stop-color="#3FA58F"/>
<stop offset="0.66" stop-color="#419595"/>
<stop offset="0.83" stop-color="#447E9D"/>
<stop offset="0.99" stop-color="#4860A7"/>
<stop offset="1" stop-color="#485EA8"/>
</radialGradient>
<radialGradient id="paint3_radial_8749_48744" cx="0" cy="0" r="1" gradientTransform="matrix(8119.29 8159.16 -8152.23 8119.37 -4552.4 -4417.19)" gradientUnits="userSpaceOnUse">
<stop stop-color="#3DB28B"/>
<stop offset="0.27" stop-color="#3DAF8C"/>
<stop offset="0.47" stop-color="#3FA58F"/>
<stop offset="0.66" stop-color="#419595"/>
<stop offset="0.83" stop-color="#447E9D"/>
<stop offset="0.99" stop-color="#4860A7"/>
<stop offset="1" stop-color="#485EA8"/>
</radialGradient>
<clipPath id="clip0_8749_48744">
<rect width="161" height="82" fill="white"/>
</clipPath>
</defs>
</svg>
