<svg width="153" height="54" viewBox="0 0 153 54" fill="none" xmlns="http://www.w3.org/2000/svg">
<g clip-path="url(#clip0_8877_69908)">
<path d="M25.7939 52.4242C25.7802 52.5744 25.8177 52.7248 25.9014 52.851C25.9302 52.8874 25.967 52.9171 26.0088 52.9379C26.0508 52.9587 26.0976 52.9701 26.1445 52.9711H26.2588C26.3125 52.978 26.3672 52.978 26.4209 52.9711L26.5898 53.9135C26.4984 53.9584 26.4005 53.9893 26.2998 54.0062C26.1563 54.0182 26.0117 54.0181 25.8682 54.0062C25.6755 54.0253 25.4806 53.9975 25.3018 53.9242C25.1228 53.8508 24.9644 53.7347 24.8418 53.5863C24.6129 53.2108 24.5055 52.775 24.5322 52.3373V43.0062H25.7939V52.4242ZM19.7959 46.2592C20.1686 46.226 20.544 46.2837 20.8887 46.4281C21.2334 46.5725 21.5369 46.7992 21.7725 47.0873C22.2131 47.7366 22.4289 48.5103 22.3867 49.2914V53.8197H21.3545L21.2529 52.9379C20.8966 53.2325 20.5073 53.486 20.0928 53.6927C19.6874 53.8969 19.238 54.0027 18.7832 54.0004C18.2092 54.0218 17.6477 53.8287 17.2109 53.4594C16.9901 53.2666 16.8157 53.0272 16.7002 52.7592C16.5846 52.4911 16.5317 52.2007 16.5439 51.9095C16.5327 51.5291 16.6283 51.1528 16.8213 50.8236C17.0144 50.4944 17.2973 50.2253 17.6367 50.0463C18.7287 49.5166 19.9176 49.2093 21.1318 49.1439C21.1295 48.9195 21.1046 48.6955 21.0576 48.476C21.0189 48.2657 20.9357 48.0659 20.8145 47.889C20.695 47.7144 20.5352 47.57 20.3486 47.4681C20.1144 47.3525 19.8543 47.2975 19.5928 47.308C19.1727 47.3033 18.7566 47.3875 18.3721 47.5551C18.0207 47.7041 17.6836 47.8852 17.3662 48.0961L16.8604 47.2338C17.2641 46.9734 17.6912 46.7498 18.1357 46.5658C18.6627 46.3548 19.2275 46.2508 19.7959 46.2592ZM56.249 46.2592C56.6227 46.226 56.999 46.2838 57.3447 46.4281C57.6905 46.5725 57.9955 46.7992 58.2324 47.0873C58.67 47.738 58.8855 48.5106 58.8467 49.2914V53.8197H57.7871L57.6797 52.9379C57.3223 53.2313 56.9324 53.4845 56.5186 53.6927C56.1112 53.8976 55.66 54.0035 55.2031 54.0004C54.6294 54.0205 54.0683 53.8275 53.6309 53.4594C53.4188 53.2617 53.253 53.0205 53.1436 52.7533C53.0341 52.4859 52.9839 52.1978 52.9971 51.9095C52.9857 51.5282 53.0829 51.1511 53.2773 50.8217C53.4717 50.4923 53.7556 50.2237 54.0967 50.0463C55.1863 49.5164 56.3728 49.2091 57.585 49.1439C57.5848 48.9198 57.5623 48.6957 57.5176 48.476C57.4758 48.2665 57.3929 48.0674 57.2744 47.889C57.1531 47.7137 56.9916 47.5692 56.8027 47.4681C56.5708 47.3531 56.3129 47.2981 56.0537 47.308C55.6334 47.3026 55.2165 47.3869 54.832 47.5551C54.4808 47.7041 54.1444 47.8853 53.8271 48.0961L53.3213 47.2338C53.7241 46.9722 54.1507 46.7483 54.5957 46.5658C55.1205 46.3553 55.6829 46.2514 56.249 46.2592ZM68.5557 46.2592C68.9294 46.2261 69.3056 46.2838 69.6514 46.4281C69.9972 46.5725 70.3021 46.7991 70.5391 47.0873C70.9766 47.738 71.1921 48.5106 71.1533 49.2914V53.8197H70.1074L69.999 52.9379C69.6417 53.2312 69.2527 53.4846 68.8389 53.6927C68.4213 53.903 67.9577 54.0089 67.4893 54.0004C66.9155 54.0205 66.3544 53.8275 65.917 53.4594C65.7085 53.2598 65.5463 53.0176 65.4404 52.7504C65.3345 52.483 65.2879 52.1963 65.3037 51.9095C65.2923 51.5282 65.3895 51.1511 65.584 50.8217C65.7784 50.4923 66.0622 50.2237 66.4033 50.0463C67.4929 49.5164 68.6794 49.2091 69.8916 49.1439C69.8915 48.9198 69.869 48.6957 69.8242 48.476C69.7825 48.2666 69.6995 48.0674 69.5811 47.889C69.4597 47.7136 69.2974 47.5692 69.1084 47.4681C68.8765 47.3531 68.6186 47.298 68.3594 47.308C67.9393 47.3027 67.523 47.3869 67.1387 47.5551C66.7874 47.7041 66.4511 47.8853 66.1338 48.0961L65.627 47.2338C66.0299 46.972 66.4571 46.7484 66.9023 46.5658C67.4271 46.3552 67.9895 46.2514 68.5557 46.2592ZM108.335 46.2592C108.708 46.2266 109.083 46.2848 109.428 46.4291C109.772 46.5735 110.077 46.7997 110.312 47.0873C110.753 47.7366 110.968 48.5103 110.926 49.2914V53.8197H109.881L109.772 52.9379C109.415 53.2312 109.026 53.4846 108.612 53.6927C108.207 53.8969 107.758 54.0027 107.303 54.0004C106.715 54.0275 106.138 53.8315 105.69 53.4525C105.483 53.2536 105.321 53.0126 105.215 52.7465C105.109 52.4804 105.061 52.1951 105.076 51.9095C105.066 51.5284 105.164 51.1518 105.358 50.8226C105.553 50.4935 105.837 50.225 106.177 50.0463C107.266 49.5166 108.452 49.2091 109.664 49.1439C109.664 48.9198 109.641 48.6957 109.597 48.476C109.555 48.2667 109.473 48.0673 109.354 47.889C109.233 47.7136 109.071 47.5692 108.882 47.4681C108.65 47.3522 108.392 47.2971 108.133 47.308C107.713 47.3027 107.296 47.3869 106.912 47.5551C106.561 47.7041 106.224 47.8852 105.906 48.0961L105.4 47.2338C105.804 46.9734 106.231 46.7498 106.676 46.5658C107.203 46.3548 107.767 46.2509 108.335 46.2592ZM94.2207 46.2855C94.6643 46.2806 95.105 46.3621 95.5166 46.5258C95.8844 46.672 96.2278 46.8728 96.5352 47.1205L95.9346 47.9086C95.6877 47.7221 95.4207 47.5636 95.1387 47.4349C94.8533 47.3132 94.5451 47.2515 94.2344 47.2543C93.8591 47.2229 93.4861 47.3377 93.1953 47.5746C93.092 47.6693 93.009 47.784 92.9521 47.9115C92.8954 48.0389 92.8654 48.1766 92.8643 48.3158C92.8603 48.4763 92.9101 48.6344 93.0059 48.764C93.1061 48.8984 93.2323 49.012 93.377 49.098C93.5408 49.2059 93.7179 49.2927 93.9033 49.3578L94.5244 49.5922L95.3271 49.9125C95.5904 50.019 95.8378 50.1607 96.0625 50.3334C96.2781 50.5008 96.4573 50.7097 96.5889 50.9476C96.7338 51.2189 96.8056 51.5227 96.7979 51.8295C96.799 52.1209 96.7398 52.4095 96.623 52.6771C96.4934 52.9315 96.3143 53.1586 96.0967 53.3451C95.8464 53.5589 95.5544 53.7207 95.2393 53.8197C94.8608 53.9429 94.4638 54.0018 94.0654 53.9935C93.5455 53.997 93.0298 53.8995 92.5479 53.7064C92.0917 53.53 91.666 53.2838 91.2861 52.9779L91.8799 52.1498C92.1902 52.4068 92.5269 52.6308 92.8848 52.8177C93.2599 52.9846 93.6679 53.0665 94.0791 53.058C94.475 53.0869 94.8673 52.9677 95.1787 52.724C95.2978 52.6227 95.3929 52.4967 95.457 52.3549C95.5212 52.2128 95.5529 52.0583 95.5498 51.9027C95.5532 51.7237 95.4988 51.5481 95.3945 51.4017C95.2883 51.2546 95.1561 51.1276 95.0039 51.0277C94.8353 50.9144 94.6538 50.8204 94.4639 50.7474L93.8496 50.5072C93.5797 50.4137 93.3167 50.313 93.0469 50.1927C92.803 50.082 92.5758 49.9378 92.3721 49.765C92.1624 49.6067 91.9858 49.4092 91.8525 49.184C91.7171 48.9363 91.6499 48.6579 91.6572 48.3763C91.6533 48.091 91.7127 47.808 91.832 47.5482C91.9479 47.2908 92.1217 47.0625 92.3389 46.8802C92.5757 46.6842 92.8482 46.5339 93.1416 46.4388C93.4911 46.3327 93.8552 46.281 94.2207 46.2855ZM137.118 49.7318C137.107 50.241 137.167 50.7495 137.3 51.2416C137.399 51.5941 137.569 51.9237 137.799 52.2103C137.999 52.4466 138.257 52.6281 138.548 52.7377C138.842 52.8411 139.153 52.8928 139.466 52.891C139.785 52.8927 140.102 52.841 140.403 52.7377C140.692 52.6246 140.95 52.4437 141.152 52.2103C141.39 51.9275 141.562 51.5968 141.658 51.2416C141.794 50.7499 141.858 50.2413 141.848 49.7318V43.8549H143.075V49.9594C143.064 50.552 142.972 51.141 142.799 51.7094C142.646 52.2044 142.386 52.6606 142.036 53.0453C141.725 53.3799 141.333 53.6303 140.896 53.7728C139.964 54.067 138.961 54.067 138.028 53.7728C137.59 53.6313 137.195 53.3808 136.882 53.0453C136.532 52.6606 136.272 52.2043 136.119 51.7094C135.922 51.0599 135.829 50.3835 135.843 49.7054V43.8549H137.118V49.7318ZM29.707 46.4388H31.7305V47.4408H29.707V51.5424C29.6833 51.9106 29.7696 52.2775 29.9561 52.597C30.0605 52.7305 30.1983 52.8352 30.3555 52.9008C30.5126 52.9663 30.6841 52.9903 30.8535 52.9711C30.9993 52.9694 31.1445 52.9497 31.2852 52.9115C31.4268 52.8739 31.567 52.8292 31.7041 52.7777L31.9463 53.7191C31.7251 53.793 31.5003 53.856 31.2725 53.9066C31.0378 53.9593 30.7973 53.9861 30.5566 53.9867C30.2126 53.997 29.8703 53.9352 29.5518 53.806C29.2878 53.6981 29.0556 53.5257 28.877 53.3051C28.7007 53.0758 28.5764 52.8117 28.5127 52.5306C28.4365 52.2021 28.3998 51.8657 28.4043 51.5287L28.4316 47.4408H27.3252V46.5131L28.4922 46.4388L28.6475 44.3754H29.707V46.4388ZM62.5098 46.4388H64.5342V47.4408H62.5098V51.5424C62.486 51.9106 62.5733 52.2775 62.7598 52.597C62.8642 52.7305 63.002 52.8352 63.1592 52.9008C63.3163 52.9662 63.4878 52.9904 63.6572 52.9711C63.8031 52.9694 63.9482 52.9497 64.0889 52.9115C64.2286 52.875 64.3665 52.8302 64.501 52.7777L64.75 53.7191C64.5286 53.7931 64.3032 53.856 64.0752 53.9066C63.8406 53.9592 63.6009 53.9861 63.3604 53.9867C63.0163 53.997 62.674 53.9352 62.3555 53.806C62.0921 53.6971 61.8601 53.5249 61.6807 53.3051C61.5068 53.0752 61.385 52.8112 61.3232 52.5306C61.247 52.2021 61.2104 51.8657 61.2148 51.5287L61.208 47.4408H60.1016V46.5131L61.2686 46.4388L61.4238 44.3754H62.5098V46.4388ZM120.999 46.2592C121.436 46.2481 121.871 46.3375 122.268 46.5199C122.596 46.6862 122.902 46.8924 123.179 47.1342L122.551 47.9418C122.346 47.76 122.119 47.6036 121.876 47.475C121.628 47.3476 121.352 47.2828 121.073 47.2875C120.749 47.2831 120.428 47.354 120.136 47.4945C119.85 47.6315 119.599 47.8301 119.4 48.0756C119.185 48.3469 119.019 48.6545 118.914 48.9838C118.683 49.7394 118.683 50.5464 118.914 51.3021C119.017 51.6222 119.175 51.9224 119.38 52.1898C119.579 52.4367 119.833 52.6355 120.122 52.7709C120.411 52.9063 120.727 52.9745 121.047 52.9711C121.386 52.9749 121.721 52.8999 122.024 52.7513C122.305 52.6123 122.564 52.434 122.794 52.223L123.367 53.0453C123.028 53.3267 122.646 53.5526 122.234 53.7133C121.825 53.8843 121.383 53.9698 120.938 53.9662C120.476 53.9689 120.018 53.8835 119.589 53.7133C119.167 53.545 118.787 53.2872 118.476 52.9584C118.147 52.6077 117.894 52.1937 117.733 51.7426C117.552 51.2296 117.461 50.6893 117.464 50.1459C117.453 49.5827 117.551 49.0227 117.754 48.4965C117.922 48.044 118.179 47.6283 118.51 47.2738C118.831 46.9432 119.22 46.6842 119.65 46.5131C120.08 46.3451 120.537 46.2588 120.999 46.2592ZM101.075 46.2592C101.508 46.2523 101.938 46.334 102.337 46.4994C102.7 46.6427 103.023 46.8721 103.275 47.1674C103.537 47.4891 103.732 47.8594 103.849 48.2562C103.989 48.7196 104.057 49.2013 104.051 49.6849C104.055 49.9084 104.039 50.1321 104.004 50.3529H98.9434C98.9584 51.0538 99.221 51.7281 99.6855 52.2572C99.9124 52.4846 100.186 52.6616 100.487 52.7767C100.788 52.8918 101.111 52.9417 101.434 52.9242C101.769 52.928 102.102 52.8739 102.418 52.764C102.724 52.6616 103.017 52.5226 103.289 52.35L103.734 53.1722C103.388 53.3825 103.021 53.5589 102.641 53.6996C101.748 54.0244 100.768 54.0244 99.875 53.6996C99.4461 53.526 99.0576 53.2665 98.7344 52.9379C98.403 52.5893 98.1457 52.178 97.9785 51.7289C97.8013 51.2201 97.7173 50.6839 97.7295 50.1459C97.7205 49.5879 97.8165 49.0333 98.0127 48.5101C98.1827 48.0598 98.4369 47.6448 98.7617 47.2875C99.0637 46.9632 99.4283 46.7023 99.834 46.5199C100.224 46.3475 100.648 46.2585 101.075 46.2592ZM12.5557 46.2592C12.9906 46.2523 13.4226 46.334 13.8242 46.4994C14.1844 46.6446 14.5043 46.8738 14.7559 47.1674C15.0174 47.4903 15.2143 47.8602 15.3359 48.2562C15.4706 48.7206 15.5362 49.2019 15.5312 49.6849C15.535 49.9084 15.5195 50.1321 15.4844 50.3529H10.4307C10.4447 51.0552 10.7102 51.7305 11.1797 52.2572C11.4057 52.4836 11.6778 52.6597 11.9775 52.7748C12.2774 52.8898 12.5987 52.9407 12.9199 52.9242C13.2574 52.9275 13.5932 52.8734 13.9121 52.764C14.2155 52.6604 14.5052 52.5214 14.7754 52.35L15.2207 53.1722C14.8768 53.3823 14.5131 53.5589 14.1348 53.6996C13.7027 53.8558 13.2451 53.9323 12.7852 53.9261C12.3048 53.93 11.8281 53.8423 11.3818 53.6664C10.9555 53.492 10.5702 53.2324 10.249 52.9047C9.91321 52.5582 9.65331 52.1465 9.48633 51.6957C9.30375 51.199 9.21039 50.6744 9.20996 50.1459C9.201 49.5879 9.29697 49.0333 9.49316 48.5101C9.66296 48.0582 9.91978 47.6428 10.249 47.2875C10.5485 46.9634 10.9108 46.7024 11.3145 46.5199C11.705 46.3475 12.1281 46.2585 12.5557 46.2592ZM87.4941 46.2592C87.9291 46.2523 88.361 46.334 88.7627 46.4994C89.1227 46.6446 89.4419 46.8739 89.6934 47.1674C89.9575 47.4888 90.1545 47.859 90.2734 48.2562C90.4081 48.7206 90.4747 49.2018 90.4697 49.6849C90.4734 49.9084 90.457 50.1321 90.4219 50.3529H85.3887C85.4027 51.0552 85.6682 51.7305 86.1377 52.2572C86.3638 52.4838 86.6366 52.6597 86.9365 52.7748C87.2365 52.8898 87.5577 52.9407 87.8789 52.9242C88.2162 52.9274 88.5514 52.8733 88.8701 52.764C89.1736 52.6604 89.4641 52.5214 89.7344 52.35L90.1797 53.1722C89.8357 53.3825 89.4712 53.5589 89.0928 53.6996C88.6609 53.8557 88.2039 53.9322 87.7441 53.9261C87.2639 53.9301 86.787 53.8422 86.3408 53.6664C85.9153 53.4904 85.5295 53.2311 85.207 52.9047C84.8712 52.5582 84.6113 52.1465 84.4443 51.6957C84.2549 51.2003 84.1544 50.6755 84.1475 50.1459C84.1385 49.588 84.2345 49.0332 84.4307 48.5101C84.6005 48.0582 84.8573 47.6428 85.1865 47.2875C85.4862 46.9632 85.8491 46.7025 86.2529 46.5199C86.6436 46.3475 87.0664 46.2584 87.4941 46.2592ZM116.392 46.2592C116.664 46.2546 116.935 46.3041 117.188 46.4056L116.938 47.5013C116.827 47.4627 116.715 47.4311 116.601 47.4076C116.475 47.3959 116.348 47.3959 116.223 47.4076C115.859 47.4233 115.51 47.5573 115.23 47.7885C114.815 48.1457 114.505 48.6074 114.333 49.1244V53.8597H113.071V46.4388H114.117L114.226 47.7748H114.272C114.497 47.3439 114.812 46.966 115.197 46.6664C115.538 46.4019 115.959 46.2585 116.392 46.2592ZM79.4385 43.8549C79.9148 43.8499 80.3905 43.8988 80.8555 44.0013C81.2578 44.0811 81.6395 44.243 81.9756 44.476C82.2897 44.6985 82.5408 44.9976 82.7041 45.3441C82.8956 45.763 82.9854 46.2207 82.9668 46.6801C83.0026 47.355 82.7835 48.0191 82.3525 48.5433C81.9195 49.0235 81.3473 49.3599 80.7139 49.5052L83.2568 53.8461L81.8135 53.8197L79.3906 49.6117H77.5625V53.8197H76.2939V43.8549H79.4385ZM1.36328 48.0355H6.04492V43.8549H7.33398V53.8197H6.04492V49.1439H1.36328V53.8197H0.0947266V43.8549H1.36328V48.0355ZM34.4297 45.9515L34.3887 47.475C34.7343 47.1485 35.1146 46.8589 35.5225 46.6127C35.9292 46.3704 36.3975 46.2481 36.8721 46.2592C37.1979 46.2334 37.5254 46.2857 37.8262 46.4125C38.1269 46.5393 38.3925 46.7363 38.5996 46.9867C39.0076 47.6304 39.1983 48.3858 39.1455 49.1439V53.8197H37.8838V49.3109C37.9253 48.7838 37.8083 48.2563 37.5469 47.7953C37.4209 47.6362 37.2566 47.5105 37.0693 47.4301C36.882 47.3496 36.6771 47.3168 36.4736 47.3344C36.1084 47.3259 35.7487 47.4258 35.4414 47.6215C35.0782 47.8746 34.7394 48.1607 34.4297 48.476V53.8197H33.1748V43.0062H34.4297V45.9515ZM46.8105 43.8549C47.4602 43.809 48.1122 43.8989 48.7246 44.1185C49.3372 44.3383 49.8969 44.6828 50.3662 45.1302C51.2347 46.1484 51.6696 47.4608 51.5801 48.7904C51.5886 49.51 51.4837 50.2267 51.2695 50.9144C51.0878 51.4986 50.7799 52.0368 50.3662 52.4906C49.9587 52.9299 49.4523 53.2683 48.8887 53.4789C48.3231 53.6895 47.7259 53.8048 47.123 53.8197H44.2939V43.8549H46.8105ZM126.039 45.9515L125.992 47.475C126.335 47.1508 126.71 46.8614 127.112 46.6127C127.52 46.3719 127.988 46.2496 128.462 46.2592C128.787 46.2335 129.115 46.2859 129.415 46.4125C129.716 46.5392 129.981 46.7364 130.188 46.9867C130.591 47.6324 130.78 48.3868 130.729 49.1439V53.8197H129.474V49.3109C129.515 48.7837 129.397 48.2564 129.136 47.7953C129.009 47.6376 128.844 47.5133 128.657 47.433C128.47 47.3527 128.267 47.3186 128.063 47.3344C127.698 47.3258 127.339 47.4258 127.031 47.6215C126.667 47.8729 126.328 48.1591 126.02 48.476V53.8197H124.784V43.0062H126.039V45.9515ZM146.847 48.85H146.894L151.077 43.8549H152.521L149.377 47.6547L153.014 53.8197H151.569L148.567 48.6429L146.833 50.6469V53.806H145.559V43.8549H146.847V48.85ZM21.1318 49.9594C20.598 50.0266 20.0682 50.1248 19.5459 50.2533C19.185 50.3363 18.8375 50.4685 18.5137 50.6469C18.2835 50.768 18.0896 50.9484 17.9531 51.1683C17.8402 51.3656 17.7825 51.5891 17.7852 51.8158C17.7666 51.9864 17.7914 52.1591 17.8574 52.3177C17.9234 52.4763 18.0286 52.6158 18.1631 52.724C18.432 52.9141 18.7568 53.011 19.0869 52.9984C19.4418 53.0007 19.7919 52.9157 20.1055 52.7513C20.4771 52.5501 20.8225 52.3026 21.1318 52.016V49.9594ZM57.585 49.9594C57.0534 50.0271 56.5259 50.1253 56.0059 50.2533C55.6443 50.334 55.2963 50.4663 54.9736 50.6469C54.7435 50.768 54.5505 50.9485 54.4141 51.1683C54.301 51.3656 54.2425 51.589 54.2451 51.8158C54.2276 51.9857 54.2527 52.1575 54.3174 52.3158C54.382 52.4739 54.4845 52.614 54.6162 52.724C54.8872 52.9151 55.2154 53.0121 55.5479 52.9984C55.9026 52.9999 56.2525 52.915 56.5664 52.7513C56.9359 52.5499 57.2779 52.3023 57.585 52.016V49.9594ZM69.8916 49.9594C69.3601 50.0271 68.8326 50.1253 68.3125 50.2533C67.9509 50.334 67.603 50.4663 67.2803 50.6469C67.0501 50.768 66.8572 50.9484 66.7207 51.1683C66.6099 51.3663 66.5539 51.5895 66.5586 51.8158H66.5518C66.5342 51.9857 66.5584 52.1575 66.623 52.3158C66.6877 52.4741 66.791 52.614 66.9229 52.724C67.1938 52.9151 67.5212 53.012 67.8535 52.9984C68.2084 52.9999 68.559 52.9151 68.873 52.7513C69.2424 52.5499 69.5846 52.3023 69.8916 52.016V49.9594ZM109.664 49.9594C109.133 50.0271 108.606 50.1254 108.086 50.2533C107.724 50.334 107.376 50.4663 107.054 50.6469C106.824 50.768 106.63 50.9484 106.493 51.1683C106.38 51.3656 106.323 51.589 106.325 51.8158C106.308 51.9857 106.332 52.1575 106.396 52.3158C106.461 52.4741 106.564 52.614 106.696 52.724C106.967 52.9151 107.295 53.012 107.627 52.9984C107.982 52.9999 108.332 52.915 108.646 52.7513C109.015 52.5499 109.357 52.3023 109.664 52.016V49.9594ZM46.709 44.8763H45.5557V52.7845H46.709C47.2012 52.8194 47.6952 52.7426 48.1533 52.5609C48.6114 52.3793 49.0217 52.0973 49.3535 51.7357C49.9916 50.8836 50.3046 49.8353 50.2373 48.7767C50.3079 47.7364 49.9938 46.7062 49.3535 45.8783C49.0146 45.5286 48.6017 45.2575 48.1445 45.0844C47.6873 44.9112 47.1971 44.8399 46.709 44.8763ZM12.583 47.2406C12.3202 47.2396 12.06 47.2941 11.8203 47.4008C11.5685 47.5086 11.3394 47.6627 11.1455 47.8549C10.9418 48.0687 10.78 48.3184 10.667 48.5902C10.5302 48.9068 10.4433 49.2426 10.4102 49.5853H14.4248C14.465 48.9659 14.2915 48.3511 13.9326 47.8422C13.771 47.6443 13.5645 47.4866 13.3301 47.3822C13.0957 47.2778 12.8398 47.2291 12.583 47.2406ZM87.5342 47.2406C87.2717 47.2396 87.0119 47.2943 86.7725 47.4008C86.5207 47.5086 86.2915 47.6628 86.0977 47.8549C85.8961 48.0704 85.7336 48.3197 85.6182 48.5902C85.4815 48.9068 85.3954 49.2426 85.3623 49.5853H89.3701C89.4123 48.9666 89.2404 48.352 88.8838 47.8422C88.7222 47.6443 88.5156 47.4866 88.2812 47.3822C88.0469 47.2779 87.7908 47.2291 87.5342 47.2406ZM101.116 47.2406C100.856 47.2395 100.598 47.294 100.36 47.4008C100.109 47.5086 99.8794 47.6627 99.6855 47.8549C99.4797 48.0684 99.3155 48.318 99.2002 48.5902C99.0658 48.9072 98.9812 49.2429 98.9502 49.5853H102.944C102.985 48.9678 102.817 48.3541 102.466 47.8422C102.304 47.6448 102.097 47.4876 101.863 47.3832C101.629 47.2788 101.373 47.2296 101.116 47.2406ZM79.2559 44.8832H77.5625V48.5834H79.2559C79.8948 48.6263 80.5307 48.4592 81.0645 48.1088C81.2782 47.9345 81.4465 47.7122 81.5557 47.4603C81.6648 47.2082 81.7114 46.9332 81.6914 46.6595C81.7199 46.3948 81.6776 46.127 81.5674 45.8842C81.4571 45.6412 81.2834 45.4315 81.0645 45.2767C80.5107 44.981 79.8839 44.845 79.2559 44.8832ZM100.253 22.5814C100.197 24.6641 100.474 26.7429 101.075 28.7396C101.52 30.189 102.265 31.531 103.262 32.6801C104.117 33.637 105.203 34.364 106.419 34.7914C107.636 35.2092 108.916 35.4192 110.204 35.4125C111.529 35.4187 112.847 35.2088 114.104 34.7914C115.346 34.3695 116.46 33.6427 117.343 32.6801C118.36 31.5353 119.125 30.1932 119.589 28.7396C120.214 26.743 120.504 24.6583 120.446 22.5687V0.0198975H122.889V22.8685C122.959 25.3149 122.593 27.7547 121.809 30.0756C121.212 31.7937 120.24 33.3607 118.962 34.6644C117.83 35.7826 116.441 36.6125 114.914 37.0824C113.386 37.5572 111.792 37.7961 110.19 37.7904C108.609 37.7935 107.036 37.5546 105.528 37.0824C104.002 36.6118 102.613 35.7819 101.48 34.6644C100.216 33.3599 99.2619 31.7918 98.6875 30.0756C97.9228 27.7506 97.5666 25.3127 97.6348 22.8685V0.0198975H100.253V22.5814ZM129.662 20.6117H129.777L147.927 0.0198975H151.05L139.108 13.765L152.703 37.142H149.688L137.286 15.7689L129.662 24.3851V37.1156H127.045V0.0198975H129.662V20.6117ZM44.334 0.0198975C46.9609 -0.0151134 49.5778 0.34989 52.0928 1.10193C54.293 1.76668 56.3165 2.9077 58.0166 4.44177C59.7268 6.01247 61.0362 7.96274 61.8359 10.1322C62.7832 12.7811 63.2396 15.5776 63.1846 18.3871C63.2365 21.2138 62.7802 24.0275 61.8359 26.6957C61.0541 28.8973 59.7753 30.8941 58.0977 32.5336C56.4553 34.0915 54.4821 35.2665 52.3223 35.973C49.9025 36.7623 47.3668 37.1487 44.8193 37.1156H33.7549V0.0198975H44.334ZM8.44727 14.2865H21.3877V0.0198975H29.8955V37.1156H21.3877V21.6332H8.44727V37.1156H0V0.0198975H8.44727V14.2865ZM79.5596 0.0198975C81.4438 0.00931189 83.3239 0.201799 85.166 0.594116C86.8023 0.924975 88.3575 1.57258 89.7412 2.49841C91.0655 3.39961 92.1412 4.6143 92.8711 6.03162C93.6912 7.75401 94.085 9.64521 94.0186 11.5482C94.1156 13.9296 93.4798 16.2838 92.1963 18.3002C90.9992 20.0571 89.3116 21.4311 87.3389 22.2543L95.8467 37.1156H86.3604L79.1748 23.7572H74.5127V37.1156H66.0654V0.0198975H79.5596ZM42.2021 30.3431H43.8145C45.2958 30.3596 46.7709 30.1477 48.1865 29.7152C49.4469 29.3283 50.5916 28.64 51.5195 27.7113C52.5086 26.6654 53.2468 25.4118 53.6787 24.0443C54.2377 22.2181 54.4992 20.3153 54.4541 18.4076C54.4984 16.5282 54.2369 14.6536 53.6787 12.8568C53.2501 11.5117 52.5106 10.2841 51.5195 9.27087C50.5847 8.37325 49.4394 7.71844 48.1865 7.36658C46.7645 6.96906 45.292 6.77578 43.8145 6.79236H42.2021V30.3431ZM74.5127 17.0785H78.8848C81.1113 17.0785 82.8077 16.6126 83.9727 15.682C84.5712 15.1783 85.042 14.5424 85.3467 13.8256C85.6513 13.1087 85.7813 12.3309 85.7266 11.5551C85.7266 9.73843 85.1465 8.46195 83.9727 7.7406C82.7987 7.01926 81.1113 6.65857 78.8848 6.65857H74.5127V17.0785Z" fill="url(#paint0_linear_8877_69908)"/>
</g>
<defs>
<linearGradient id="paint0_linear_8877_69908" x1="0" y1="0.0179443" x2="152.108" y2="56.4575" gradientUnits="userSpaceOnUse">
<stop offset="0.0405405" stop-color="#46AF93"/>
<stop offset="1" stop-color="#475DA7"/>
</linearGradient>
<clipPath id="clip0_8877_69908">
<rect width="153" height="54" fill="white"/>
</clipPath>
</defs>
</svg>
